<?xml version="1.0" encoding="utf-8"?>
<!-- Generator: Adobe Illustrator 26.3.1, SVG Export Plug-In . SVG Version: 6.00 Build 0)  -->
<svg version="1.1" id="Layer_1" xmlns:serif="http://www.serif.com/"
	 xmlns="http://www.w3.org/2000/svg" xmlns:xlink="http://www.w3.org/1999/xlink" x="0px" y="0px" viewBox="0 0 395 395"
	 style="enable-background:new 0 0 395 395;" xml:space="preserve">
<style type="text/css">
	.st0{fill:#E4F9F5;}
	.st1{fill-rule:evenodd;clip-rule:evenodd;fill:#E4F9F5;}
</style>
<g>
	<g transform="matrix(10.1957,0,0,10.1957,101.957,101.957)">
		<g id="SvgjsG6810" transform="matrix(0.81,0,0,0.81,104.9,-8.1)">
			<path class="st0" d="M-108.5,4.5c0.1,0.1,0.2,0.1,0.3,0.1c0.2,0,0.4-0.1,0.5-0.3c0.2-0.3,0.1-0.7-0.2-0.8
				c-1.3-0.7-2.7-1.3-4.2-1.8c-0.3-0.1-0.7,0.1-0.7,0.4c-0.1,0.3,0.1,0.7,0.4,0.7C-111.1,3.3-109.8,3.8-108.5,4.5z"/>
			<path class="st0" d="M-127.6,4.5c0.1,0,0.2,0,0.3-0.1c1.3-0.7,2.6-1.2,3.9-1.6c0.3-0.1,0.5-0.4,0.4-0.7c-0.1-0.3-0.4-0.5-0.7-0.4
				c-1.5,0.4-2.9,1-4.2,1.7c-0.3,0.2-0.4,0.5-0.2,0.8C-128,4.3-127.8,4.5-127.6,4.5z"/>
			<path class="st0" d="M-137.9,15.6c-0.1,0.3,0.1,0.7,0.4,0.7c0.1,0,0.1,0,0.2,0c0.3,0,0.5-0.2,0.6-0.4c0.4-1.4,1-2.7,1.7-3.9
				c0.2-0.3,0.1-0.7-0.2-0.8c-0.3-0.2-0.7-0.1-0.8,0.2C-136.9,12.8-137.5,14.2-137.9,15.6z"/>
			<path class="st0" d="M-135.2,30.8c-0.7-1.3-1.2-2.6-1.6-3.9c-0.1-0.3-0.4-0.5-0.7-0.4c-0.3,0.1-0.5,0.4-0.4,0.7
				c0.4,1.5,1,2.9,1.7,4.2c0.1,0.2,0.3,0.3,0.5,0.3c0.1,0,0.2,0,0.3-0.1C-135.2,31.5-135.1,31.1-135.2,30.8z"/>
			<path class="st0" d="M-127.6,38.6c-0.3-0.2-0.7-0.1-0.8,0.2s-0.1,0.7,0.2,0.8c1.3,0.7,2.7,1.3,4.2,1.8c0.1,0,0.1,0,0.2,0
				c0.3,0,0.5-0.2,0.6-0.4c0.1-0.3-0.1-0.7-0.4-0.7C-125,39.8-126.3,39.3-127.6,38.6z"/>
			<path class="st0" d="M-108.8,38.7c-1.3,0.7-2.6,1.2-3.9,1.6c-0.3,0.1-0.5,0.4-0.4,0.7c0.1,0.3,0.3,0.4,0.6,0.4c0.1,0,0.1,0,0.2,0
				c1.5-0.4,2.9-1,4.2-1.7c0.3-0.2,0.4-0.5,0.2-0.8C-108.1,38.7-108.5,38.6-108.8,38.7z"/>
			<path class="st0" d="M-100.8,31.9c0.1,0.1,0.2,0.1,0.3,0.1c0.2,0,0.4-0.1,0.5-0.3c0.7-1.3,1.3-2.7,1.8-4.2
				c0.1-0.3-0.1-0.7-0.4-0.7c-0.3-0.1-0.7,0.1-0.7,0.4c-0.4,1.4-1,2.7-1.7,3.9C-101.2,31.4-101.1,31.7-100.8,31.9z"/>
			<path class="st0" d="M-100.9,12.3c0.7,1.3,1.2,2.6,1.6,3.9c0.1,0.3,0.3,0.4,0.6,0.4c0.1,0,0.1,0,0.2,0c0.3-0.1,0.5-0.4,0.4-0.7
				c-0.4-1.5-1-2.9-1.7-4.2c-0.2-0.3-0.5-0.4-0.8-0.2C-100.9,11.6-101,12-100.9,12.3z"/>
		</g>
	</g>
	<g id="Layer1">
		<g>
			<g transform="matrix(1.0659,0,0,1.0659,-110.209,-4.15795)">
				<circle class="st1" cx="288.7" cy="33.3" r="29.4"/>
			</g>
			<g transform="matrix(1.0659,0,0,1.0659,-110.209,550.491)">
				<circle class="st1" cx="288.7" cy="-175.3" r="29.4"/>
			</g>
		</g>
		<g transform="matrix(6.12323e-17,1,-1,6.12323e-17,2017.51,-1154.53)">
			<g transform="matrix(1.0659,0,0,1.0659,-110.209,-4.15795)">
				<circle class="st1" cx="1371.8" cy="1555.5" r="29.4"/>
			</g>
			<g transform="matrix(1.0659,0,0,1.0659,-110.209,550.491)">
				<circle class="st1" cx="1371.8" cy="1347" r="29.4"/>
			</g>
		</g>
		<g transform="matrix(-0.707107,0.707107,-0.707107,-0.707107,3012.62,-384.881)">
			<g transform="matrix(1.0659,0,0,1.0659,-110.209,-4.15795)">
				<circle class="st1" cx="2357.3" cy="1329.2" r="29.4"/>
			</g>
			<g transform="matrix(1.0659,0,0,1.0659,-110.209,550.491)">
				<circle class="st1" cx="2357.3" cy="1120.7" r="29.4"/>
			</g>
		</g>
		<g transform="matrix(0.707107,0.707107,-0.707107,0.707107,769.646,-995.104)">
			<g transform="matrix(1.0659,0,0,1.0659,-110.209,-4.15795)">
				<circle class="st1" cx="515" cy="1018.7" r="29.4"/>
			</g>
			<g transform="matrix(1.0659,0,0,1.0659,-110.209,550.491)">
				<circle class="st1" cx="515" cy="810.2" r="29.4"/>
			</g>
		</g>
		<g transform="matrix(1.5849,0,0,1.5849,-969.434,-336.757)">
			<circle class="st1" cx="736.3" cy="337.4" r="63"/>
		</g>
	</g>
</g>
</svg>
